Aladdin (1992) 1080p  
 

 Verenigde Staten 
Animatie / Fantasy 
90 minuten 

geregisseerd door Ron Clements en John Musker 
met de stemmen van Scott Weinger, Robin Williams en Linda Larkin 

Aladdin is een jongen van de straat die in een druk dorp woont, samen met zijn aapje Abu. Als Prinses Jasmine het leven in het paleis zat wordt, besluit ze zich onder het volk te mengen. Ze komt Aladdin tegen, en hij wordt verliefd op haar. Aladdin wordt gevangen genomen, om vervolgens voor de slechte Jafar (de adviseur van de Sultan) een mysterieuze lamp te vinden. 
 
http://www.moviemeter.nl/film/459

English

Storyline
Aladdin is a street-urchin who lives in a large and busy town long ago with his faithful monkey friend Abu. When Princess Jasmine gets tired of being forced to remain in the palace that overlooks the city, she sneaks out to the marketplace, where she accidentally meets Aladdin. Under the orders of the evil Jafar (the sultan's advisor), Aladdin is thrown in jail and becomes caught up in Jafar's plot to rule the land with the aid of a mysterious lamp. Legend has it that only a person who is a "diamond in the rough" can retrieve the lamp from the Cave of Wonders. Aladdin might fight that description, but that's not enough to marry the princess, who must (by law) marry a prince. 

 
http://www.imdb.com/title/tt0103639/


Postinformatie
   
  Category .......: Video 
  Format .........: x264HD 
  Source .........: Retail 
  Subtitle .......: Dutch subs optional  
  Genre ..........: Animation  
  Language........: English audio Dutch audio AC 3 
   
  Weblink :  http://www.moviemeter.nl/film/459
  Weblink :  http://www.imdb.com/title/tt0103639/

TBS

MEDIA INFO

General
Complete name                    : Aladdin.1992.1080p.HDTV.x264-SHiTSoNy.mkv
Format                           : Matroska
File size                        : 4.36 GiB
Duration                         : 1h 26mn
Overall bit rate                 : 7 202 Kbps
Encoded date                     : UTC 2008-11-03 21:13:26
Writing application              : mkvmerge v2.3.0 ('Freak U') built on Sep  8 2008 18:32:16
Writing library                  : libebml v0.7.7 + libmatroska v0.8.1

Video
ID                               : 1
Format                           : AVC
Format/Info                      : Advanced Video Codec
Format profile                   : High@L4.1
Format settings, CABAC           : Yes
Format settings, ReFrames        : 4 frames
Muxing mode                      : Container profile=Unknown@4.1
Codec ID                         : V_MPEG4/ISO/AVC
Duration                         : 1h 26mn
Bit rate                         : 6 117 Kbps
Width                            : 1 904 pixels
Height                           : 1 080 pixels
Display aspect ratio             : 16:9
Frame rate                       : 25.000 fps
Original frame rate              : 23.976 fps
Color space                      : YUV
Chroma subsampling               : 4:2:0
Bit depth                        : 8 bits
Scan type                        : Progressive
Bits/(Pixel*Frame)               : 0.119
Stream size                      : 3.77 GiB (86%)
Writing library                  : x264 core 65 r1016M dbc5ef0
Encoding settings                : cabac=1 / ref=4 / deblock=1:-1:0 / analyse=0x3:0x113 / me=umh / subme=9 / psy_rd=0.7:0.0 / mixed_ref=1 / me_range=32 / chroma_me=1 / trellis=2 / 8x8dct=1 / cqm=0 / deadzone=21,11 / chroma_qp_offset=-4 / threads=3 / nr=0 / decimate=1 / mbaff=0 / bframes=3 / b_pyramid=1 / b_adapt=2 / b_bias=0 / direct=3 / wpredb=0 / keyint=250 / keyint_min=25 / scenecut=40(pre) / rc=2pass / bitrate=6117 / ratetol=1.0 / qcomp=0.60 / qpmin=10 / qpmax=51 / qpstep=4 / cplxblur=20.0 / qblur=0.5 / vbv_maxrate=40000 / vbv_bufsize=40000 / ip_ratio=1.40 / pb_ratio=1.30 / aq=1:1.00 / zones=123143,129173,q=25

Audio #1
ID                               : 2
Format                           : AC-3
Format/Info                      : Audio Coding 3
Mode extension                   : CM (complete main)
Codec ID                         : A_AC3
Duration                         : 1h 26mn
Bit rate mode                    : Constant
Bit rate                         : 384 Kbps
Channel(s)                       : 6 channels
Channel positions                : Front: L C R, Side: L R, LFE
Sampling rate                    : 48.0 KHz
Bit depth                        : 16 bits
Stream size                      : 238 MiB (5%)
Language                         : Dutch

Audio #2
ID                               : 3
Format                           : AC-3
Format/Info                      : Audio Coding 3
Mode extension                   : CM (complete main)
Codec ID                         : A_AC3
Duration                         : 1h 26mn
Bit rate mode                    : Constant
Bit rate                         : 448 Kbps
Channel(s)                       : 6 channels
Channel positions                : Front: L C R, Side: L R, LFE
Sampling rate                    : 48.0 KHz
Bit depth                        : 16 bits
Stream size                      : 278 MiB (6%)
Language                         : English

Text
ID                               : 4
Format                           : UTF-8
Codec ID                         : S_TEXT/UTF8
Codec ID/Info                    : UTF-8 Plain Text
Language                         : Dutch


        

 
